<?xml version="1.0" encoding="utf-8"?>
<!-- Generator: Adobe Illustrator 16.0.0, SVG Export Plug-In . SVG Version: 6.00 Build 0)  -->
<!DOCTYPE svg PUBLIC "-//W3C//DTD SVG 1.1//EN" "http://www.w3.org/Graphics/SVG/1.1/DTD/svg11.dtd">
<svg version="1.1" id="Layer_1" xmlns="http://www.w3.org/2000/svg" xmlns:xlink="http://www.w3.org/1999/xlink" x="0px" y="0px"
	 width="60px" height="34.286px" viewBox="0 0 60 34.286" enable-background="new 0 0 60 34.286" xml:space="preserve">
<g>
	<g>
		<polygon fill="#1A7563" points="5.458,23.233 3.01,21.587 3.01,12.479 5.458,11.656 		"/>
		<path fill="#1A7563" d="M7.864,8.489L0.844,0.225c0,0,13.708-0.793,17.957,0.603c2.058,0.676,7.056,4.884,7.056,4.884
			s-6.688,0.471-8.873,0.808C14.671,6.877,7.864,8.489,7.864,8.489z"/>
		<path fill="#1A7563" d="M7.021,25.797L0,34.062c0,0,13.708,0.793,17.957-0.603c2.059-0.676,7.057-4.884,7.057-4.884
			s-6.688-0.471-8.874-0.808C13.827,27.409,7.021,25.797,7.021,25.797z"/>
	</g>
	<path fill="#FFFFFF" d="M60,17.096c0,6.287-14.096,11.384-31.482,11.384c-9.006,0-18.015-0.38-23.01-3.812
		C5.415,24.603,5.433,9.351,5.639,9.271c5.725-2.228,13.867-3.559,22.879-3.559C45.904,5.712,60,10.808,60,17.096z"/>
	<path fill="#ECECED" d="M60,17.096c0,0,0.373,10.72-31.482,11.384c-9.003,0.188-18.015-0.38-23.01-3.812
		c-0.093-0.065-0.262-7.282-0.048-7.223c6.703,1.866,15.02,2.602,24.03,2.602C46.877,20.047,60,17.096,60,17.096z"/>
</g>
</svg>
