<?xml version="1.0" encoding="utf-8"?>
<!-- Generator: Adobe Illustrator 16.0.0, SVG Export Plug-In . SVG Version: 6.00 Build 0)  -->
<!DOCTYPE svg PUBLIC "-//W3C//DTD SVG 1.1//EN" "http://www.w3.org/Graphics/SVG/1.1/DTD/svg11.dtd">
<svg version="1.1" id="Isolation_Mode" xmlns="http://www.w3.org/2000/svg" xmlns:xlink="http://www.w3.org/1999/xlink" x="0px"
	 y="0px" width="736.068px" height="516.535px" viewBox="0 0 736.068 516.535" enable-background="new 0 0 736.068 516.535"
	 xml:space="preserve">
<g>
	<path opacity="0.1" enable-background="new    " d="M736.068,381.367c-11.715-34.224-45.333-57.631-83.071-54.857
		c-42.47,3.123-74.917,38.287-75.504,80.115c-8.968-4.108-19.064-6.084-29.597-5.31c-27.318,2.009-49.06,21.856-54.699,47.313
		c-6.248-5.639-13.899-9.703-22.303-11.645c9.445-12.488,15.055-28.045,15.055-44.914c0-12.332-3.012-23.953-8.313-34.197
		c0.247,0.006,0.486,0.037,0.733,0.037c22.262,0,40.309-18.062,40.309-40.342c0-14.518-7.689-27.207-19.188-34.314
		c8.422-3.291,14.397-11.473,14.397-21.066c0-9.055-5.325-16.846-13.003-20.465c4.883-4.15,7.99-10.33,7.99-17.245
		c0-12.5-10.125-22.633-22.615-22.633c-12.488,0-22.615,10.133-22.615,22.633c0,2.652,0.48,5.187,1.318,7.552
		c-0.438-0.026-0.872-0.066-1.318-0.066c-12.487,0-22.611,10.133-22.611,22.633c0,3.065,0.616,5.985,1.72,8.653
		c-17.889,4.123-31.242,20.123-31.242,39.279c0,5.35,1.064,10.443,2.952,15.114c-0.979-0.037-1.962-0.074-2.952-0.074
		c-41.11,0-74.438,33.354-74.438,74.503c0,8.635,1.484,16.922,4.186,24.635c-2.805-0.084-5.639-0.039-8.499,0.17
		c-35.024,2.576-63.247,26.945-72.393,58.873c-9.577-7.803-22.026-12.109-35.313-11.135c-18.484,1.359-33.879,12.588-41.441,28.148
		c-6.604-9.631-17.976-15.611-30.454-14.691c-9.365,0.686-17.56,5.119-23.235,11.721c-2.493-18.541-18.324-32.848-37.531-32.848
		c-17.388,0-32.005,11.729-36.475,27.701c-5.886-6.441-14.323-10.506-23.73-10.506C14.409,474.14,0,498.744,0,516.535h736.067
		v-73.836L736.068,381.367z"/>
	<g>
		<g opacity="0.3">
			<path d="M554.535,131.402c0,0,11.799-0.479,16.917,17.167c5.12,17.65-5.097,59.926-5.097,59.926s-3.209,3.726-4.771-0.502
				c-1.563-4.226-18.191-46.216-18.191-46.216L554.535,131.402z"/>
			<path d="M462.819,112.583c0,0-10.638-5.133-22.344,9.026c-11.704,14.159-19.118,57.017-19.118,57.017s1.465,4.693,4.578,1.437
				c3.109-3.258,35.046-35.174,35.046-35.174L462.819,112.583z"/>
		</g>
		<path opacity="0.6" fill="#FFFFFF" enable-background="new    " d="M495.563,152.288l-0.938,5.904l-29.056-6.027
			c-3.215-0.667-5.299-3.842-4.633-7.055v-0.005L495.563,152.288z"/>
		<path opacity="0.2" enable-background="new    " d="M543.301,161.922C591.024,50.833,533.924-0.04,533.924-0.04
			s-72.601,23.968-72.923,144.889l34.58,7.399c0,0,3.152-20.888,3.665-23.027c0.337-1.406,0.29-2.601,0.718-3.489
			c0.646-1.345,2.971-4.485,8.604-3.938c3.971,0.386,6.629,5.054,6.629,6.708c0,1.145-0.52,2.564-0.884,4.267
			c-1.451,6.762-5.637,22.192-5.637,22.192L543.301,161.922z"/>
		<path opacity="0.8" fill="#FFFFFF" enable-background="new    " d="M554.816,34.807C546.396,11.277,533.727,0,533.727,0
			s-16.317,5.382-33.521,23.916C500.204,23.916,527.987,36.021,554.816,34.807z"/>
		<path opacity="0.6" fill="#FFFFFF" enable-background="new    " d="M536.3,166.836l-29.112-6.039l1.472-5.795l-47.723-9.896
			l82.423,17.093l-0.001,0.005C542.691,165.419,539.517,167.505,536.3,166.836z"/>
		<path opacity="0.2" d="M543.427,84.259c-2.96,14.295-16.938,23.481-31.221,20.519c-14.284-2.963-23.463-16.953-20.502-31.247
			c2.96-14.295,16.938-23.481,31.222-20.519C537.208,55.975,546.386,69.965,543.427,84.259z"/>
		<g opacity="0.2">
			<circle cx="521.67" cy="58.444" r="2.387"/>
			<circle cx="513.194" cy="99.373" r="2.387"/>
			<circle cx="538.364" cy="83.209" r="2.386"/>
			<circle cx="497" cy="74.63" r="2.386"/>
			<circle cx="505.557" cy="61.687" r="2.387"/>
			<circle cx="535.209" cy="67.839" r="2.387"/>
			<circle cx="499.648" cy="90.22" r="2.387"/>
			<circle cx="529.301" cy="96.372" r="2.387"/>
		</g>
		<circle opacity="0.2" enable-background="new    " cx="517.374" cy="78.895" r="15.844"/>
		<g opacity="0.5">
			
				<path fill="none" stroke="#000000" stroke-width="0.75" stroke-linecap="round" stroke-linejoin="round" stroke-miterlimit="10" d="
				M527.294,76.154"/>
			
				<path fill="none" stroke="#000000" stroke-width="0.75" stroke-linecap="round" stroke-linejoin="round" stroke-miterlimit="10" d="
				M512.14,86.104"/>
		</g>
		<path opacity="0.3" enable-background="new    " d="M493.09,197.083L493.09,197.083c-3.085-0.641-4.22-3.764-3.52-7.146
			l10.104-63.49c0.701-3.383,5.914-5.32,8.998-4.68l0,0c2.99,0.288,7.126,4.496,6.425,7.879l-15.821,62.303
			C498.574,195.333,496.175,197.722,493.09,197.083z"/>
	</g>
</g>
</svg>
